<svg xmlns="http://www.w3.org/2000/svg" width="60" height="60" viewBox="0 0 60 60">
  <g id="Groupe_783" data-name="Groupe 783" transform="translate(-535 -24)">
    <circle id="Ellipse_167" data-name="Ellipse 167" cx="30" cy="30" r="30" transform="translate(535 24)" fill="#fff"/>
    <path id="Icon_simple-envato" data-name="Icon simple-envato" d="M21,.206c-.776-.389-2.852-.259-5.445.65-4.41,3.111-8.043,7.52-8.431,14.788,0,.253-.517,0-.647-.132a10.324,10.324,0,0,1-.65-8.3c.259-.259-.388-.647-.388-.518A9.236,9.236,0,0,0,3.624,8.9,11,11,0,0,0,7.776,23.813,11.075,11.075,0,0,0,22.692,19.53c3.5-6.094.387-18.156-1.69-19.323" transform="translate(551.691 41.423)" fill="#82b541"/>
  </g>
</svg>
