<svg xmlns="http://www.w3.org/2000/svg" viewBox="0 0 165.99 25.04"><defs><style>.cls-1{isolation:isolate;}.cls-2{fill:#2232ff;}</style></defs><title>Asset 1</title><g id="Layer_2" data-name="Layer 2"><g id="Layer_1-2" data-name="Layer 1"><g class="cls-1"><path class="cls-2" d="M16.39,16.66a2.14,2.14,0,0,1-1.4.5H4a5.06,5.06,0,0,0,1.84,3.09,5.15,5.15,0,0,0,3.24,1.11,7,7,0,0,0,2.13-.25,5.27,5.27,0,0,0,1.22-.53L13,20.2a2.55,2.55,0,0,1,1.13-.3,1.64,1.64,0,0,1,1.21.5,1.6,1.6,0,0,1,.5,1.16,2.09,2.09,0,0,1-.94,1.64,7.9,7.9,0,0,1-2.5,1.3A9.73,9.73,0,0,1,9.25,25a9.83,9.83,0,0,1-4.89-1.17,8.2,8.2,0,0,1-3.23-3.22A9.48,9.48,0,0,1,0,16a10.26,10.26,0,0,1,1.2-5A8.6,8.6,0,0,1,4.37,7.66,8.21,8.21,0,0,1,8.58,6.51a7.84,7.84,0,0,1,4.16,1.2A9,9,0,0,1,15.86,11,8.71,8.71,0,0,1,17,15.36,1.72,1.72,0,0,1,16.39,16.66ZM4,13.82h8.74v-.23a3.44,3.44,0,0,0-1.37-2.41,4.35,4.35,0,0,0-2.8-1C6,10.18,4.47,11.4,4,13.82Z"/><path class="cls-2" d="M34,22.73a1.89,1.89,0,0,1-.64,1.44,1.95,1.95,0,0,1-3-.27l-4-5-3.9,5a2.13,2.13,0,0,1-.72.62,2,2,0,0,1-.89.22,2,2,0,0,1-1.33-.54A1.56,1.56,0,0,1,18.79,23a2,2,0,0,1,.5-1.27L23.93,16l-4.8-6a1.9,1.9,0,0,1,.18-2.62,2,2,0,0,1,3.06.25l4.1,5.11,3.81-5a1.89,1.89,0,0,1,2.95-.36,1.73,1.73,0,0,1,.55,1.26,2,2,0,0,1-.47,1.3l-4.6,5.61,4.81,6A1.92,1.92,0,0,1,34,22.73Z"/><path class="cls-2" d="M52.58,20.58a8.53,8.53,0,0,1-3.29,3.29,9.63,9.63,0,0,1-9.2,0,8.54,8.54,0,0,1-3.27-3.29,9.54,9.54,0,0,1-1.2-4.79A9.54,9.54,0,0,1,36.82,11a8.64,8.64,0,0,1,3.27-3.3,9.49,9.49,0,0,1,9.2,0A8.62,8.62,0,0,1,52.58,11a9.54,9.54,0,0,1,1.2,4.79A9.54,9.54,0,0,1,52.58,20.58Zm-3.49-7.71a5.06,5.06,0,0,0-1.84-2,4.89,4.89,0,0,0-2.55-.7,4.84,4.84,0,0,0-2.55.7,5,5,0,0,0-1.84,2,6.08,6.08,0,0,0-.69,2.92,6,6,0,0,0,.69,2.9,4.94,4.94,0,0,0,1.84,2,4.75,4.75,0,0,0,2.55.7,4.8,4.8,0,0,0,2.55-.7,5,5,0,0,0,1.84-2,6.06,6.06,0,0,0,.68-2.9A6.2,6.2,0,0,0,49.09,12.87Z"/></g><g class="cls-1"><path d="M65.25,8.11a.61.61,0,0,1,0,.89.61.61,0,0,1-.45.18H61.14V21.06a2.69,2.69,0,0,0,.52,2A1.85,1.85,0,0,0,63,23.5a1.88,1.88,0,0,0,.38-.06,1.52,1.52,0,0,1,.42-.07.53.53,0,0,1,.4.18.6.6,0,0,1,.16.42c0,.2-.13.37-.4.52a2,2,0,0,1-.93.21,7.71,7.71,0,0,1-1.4-.11,2.25,2.25,0,0,1-1.19-.9,4.2,4.2,0,0,1-.62-2.56V9.18H57.07a.64.64,0,0,1-.44-.2.62.62,0,0,1-.2-.43.65.65,0,0,1,.64-.64H59.8V3.67a.63.63,0,0,1,.2-.46.65.65,0,0,1,1,0,.65.65,0,0,1,.18.46V7.91h3.67A.64.64,0,0,1,65.25,8.11Z"/><path d="M80.83,9.66a6.92,6.92,0,0,1,1.54,4.63V24a.65.65,0,0,1-.2.46.61.61,0,0,1-.47.2.59.59,0,0,1-.48-.2A.67.67,0,0,1,81,24V14.29a5.83,5.83,0,0,0-1.14-3.74,4.15,4.15,0,0,0-3.47-1.44,6.45,6.45,0,0,0-5.08,2.61,4.36,4.36,0,0,0-.86,2.57V24a.65.65,0,0,1-.2.46.68.68,0,0,1-1,0,.67.67,0,0,1-.18-.46V.67a.65.65,0,0,1,.2-.47.65.65,0,0,1,.47-.2.63.63,0,0,1,.48.2.68.68,0,0,1,.19.47V11.22A7.25,7.25,0,0,1,73.07,8.8a6.64,6.64,0,0,1,3.36-1A5.44,5.44,0,0,1,80.83,9.66Z"/><path d="M101.5,20.88a.61.61,0,0,1,.17.42.63.63,0,0,1-.14.4,8.8,8.8,0,0,1-2.74,2.4,6.86,6.86,0,0,1-3.5.94A9.06,9.06,0,0,1,90.85,24a7.55,7.55,0,0,1-3-3,9.36,9.36,0,0,1-1.09-4.57,10,10,0,0,1,1.05-4.69,7.71,7.71,0,0,1,2.79-3.09,7,7,0,0,1,3.71-1.07,7.94,7.94,0,0,1,3.65.85,6.84,6.84,0,0,1,2.76,2.56,8.13,8.13,0,0,1,1.13,4.2.69.69,0,0,1-.2.49.62.62,0,0,1-.46.21H88.05v.44a8.52,8.52,0,0,0,.83,3.79,6.49,6.49,0,0,0,2.47,2.72,7.37,7.37,0,0,0,3.94,1A6.51,6.51,0,0,0,100.53,21a.71.71,0,0,1,.57-.3A.53.53,0,0,1,101.5,20.88ZM91.77,9.5a6.57,6.57,0,0,0-2.27,1.93,7.11,7.11,0,0,0-1.32,3.12h12.28v-.3a5.71,5.71,0,0,0-1.08-2.92,6,6,0,0,0-2.27-1.85,6.59,6.59,0,0,0-2.82-.63A5.43,5.43,0,0,0,91.77,9.5Z"/><path d="M129.52,9.65A7.11,7.11,0,0,1,131,14.32V24a.63.63,0,0,1-.19.46.68.68,0,0,1-1,0,.63.63,0,0,1-.19-.46V14.46a6.11,6.11,0,0,0-1.15-3.86A4.15,4.15,0,0,0,125,9.11a6,6,0,0,0-2.82.74,6.45,6.45,0,0,0-2.25,2,4.48,4.48,0,0,0-.87,2.66V24a.67.67,0,0,1-.18.46.63.63,0,0,1-.49.2.59.59,0,0,1-.48-.2.68.68,0,0,1-.19-.46V14.29a5.94,5.94,0,0,0-1.1-3.74,3.92,3.92,0,0,0-3.33-1.44,5.9,5.9,0,0,0-2.74.7,6.22,6.22,0,0,0-2.19,1.91,4.35,4.35,0,0,0-.85,2.57V24a.65.65,0,0,1-.2.46.61.61,0,0,1-.47.2.59.59,0,0,1-.48-.2.67.67,0,0,1-.18-.46V8.71a.7.7,0,0,1,.66-.67.64.64,0,0,1,.49.21.67.67,0,0,1,.18.46v2.34a7.85,7.85,0,0,1,2.52-2.3,6.43,6.43,0,0,1,3.26-.91,5.9,5.9,0,0,1,3.27.94,5.43,5.43,0,0,1,2.1,2.74,5.86,5.86,0,0,1,2.65-2.61,8,8,0,0,1,3.83-1.07A5.32,5.32,0,0,1,129.52,9.65Z"/><path d="M150.14,20.88a.6.6,0,0,1,.16.42.62.62,0,0,1-.13.4,8.91,8.91,0,0,1-2.74,2.4,6.88,6.88,0,0,1-3.5.94A9.06,9.06,0,0,1,139.49,24a7.55,7.55,0,0,1-3-3,9.25,9.25,0,0,1-1.09-4.57,10,10,0,0,1,1.05-4.69,7.64,7.64,0,0,1,2.79-3.09,7,7,0,0,1,3.71-1.07,7.94,7.94,0,0,1,3.65.85,6.88,6.88,0,0,1,2.75,2.56,8.13,8.13,0,0,1,1.14,4.2.73.73,0,0,1-.2.49.62.62,0,0,1-.47.21H136.68v.44a8.53,8.53,0,0,0,.84,3.79A6.42,6.42,0,0,0,140,22.77a7.37,7.37,0,0,0,3.94,1,6.08,6.08,0,0,0,3-.79,6.29,6.29,0,0,0,2.22-2,.69.69,0,0,1,.57-.3A.55.55,0,0,1,150.14,20.88ZM140.41,9.5a6.69,6.69,0,0,0-2.28,1.93,7.21,7.21,0,0,0-1.31,3.12H149.1v-.3A5.71,5.71,0,0,0,148,11.33a6.05,6.05,0,0,0-2.27-1.85,6.66,6.66,0,0,0-2.82-.63A5.43,5.43,0,0,0,140.41,9.5Z"/><path d="M153.67,21.4a.57.57,0,0,1,.27-.44.55.55,0,0,1,.4-.16.67.67,0,0,1,.54.26,6.22,6.22,0,0,0,5.4,2.78,5.51,5.51,0,0,0,3.11-.89,2.72,2.72,0,0,0,1.33-2.39,2.57,2.57,0,0,0-1.17-2.3,10.47,10.47,0,0,0-3.2-1.27,12.47,12.47,0,0,1-4.26-1.78,3.68,3.68,0,0,1-1.55-3.16,4,4,0,0,1,1.57-3.25,6.16,6.16,0,0,1,4-1.29,7.47,7.47,0,0,1,2.72.53,6.82,6.82,0,0,1,2.45,1.71.59.59,0,0,1,.24.46.73.73,0,0,1-.24.54,1,1,0,0,1-.43.13.48.48,0,0,1-.4-.2A5.78,5.78,0,0,0,160,8.78a5,5,0,0,0-3,.87,2.79,2.79,0,0,0-1.22,2.4,2.74,2.74,0,0,0,1.32,2.22,12.53,12.53,0,0,0,3.59,1.39,16.48,16.48,0,0,1,2.82.95,4.4,4.4,0,0,1,1.78,1.45A4.07,4.07,0,0,1,166,20.5a3.93,3.93,0,0,1-1.62,3.32A6.84,6.84,0,0,1,160.15,25a7.65,7.65,0,0,1-6.24-3A1.19,1.19,0,0,1,153.67,21.4Z"/></g></g></g></svg>